<svg width="24" height="24" viewBox="0 0 24 24" fill="none" xmlns="http://www.w3.org/2000/svg">
<path fill-rule="evenodd" clip-rule="evenodd" d="M21.1924 4.22185C21.5829 4.61237 21.5829 5.24554 21.1924 5.63606L19.0436 7.78374L20.8241 9.5418C22.1817 10.8823 22.1956 13.0696 20.8551 14.4272C20.8448 14.4376 20.8345 14.448 20.8241 14.4582L17.6569 17.5854C15.0256 20.1835 11.0519 20.6015 7.98872 18.8394L5.63604 21.1924C5.24552 21.5829 4.61235 21.5829 4.22183 21.1924C3.8313 20.8019 3.8313 20.1687 4.22183 19.7782L7.39156 16.6077L7.75736 16.2427L16.5286 7.47074L17.6203 6.37872L19.7782 4.22185C20.1687 3.83132 20.8019 3.83132 21.1924 4.22185ZM17.4155 9.41372L15.8647 10.9648C15.953 11.295 16 11.642 16 12C16 14.2092 14.2091 16 12 16C11.6419 16 11.2948 15.953 10.9645 15.8647L9.4132 17.4153C10.1965 17.7901 11.0737 18 12 18C15.3137 18 18 15.3137 18 12C18 11.0739 17.7902 10.1969 17.4155 9.41372ZM16.0115 5.16081L14.5876 6.58515C13.8042 6.21007 12.9266 6.00002 12 6.00002C8.68629 6.00002 6 8.68631 6 12C6 12.9266 6.21005 13.8042 6.58513 14.5877L4.95556 16.2155L3.17595 14.4582C1.81831 13.1177 1.80441 10.9305 3.14491 9.57284C3.15519 9.56243 3.16554 9.55208 3.17595 9.5418L6.34315 6.4146C8.97449 3.81648 12.9483 3.39855 16.0115 5.16081ZM12 8.00002C12.3584 8.00002 12.7057 8.04715 13.0362 8.13554L8.13552 13.0362C8.04713 12.7057 8 12.3584 8 12C8 9.79088 9.79086 8.00002 12 8.00002Z" fill="#746969"/>
</svg>
