<svg width="24" height="24" viewBox="0 0 24 24" fill="none" xmlns="http://www.w3.org/2000/svg">
<path fill-rule="evenodd" clip-rule="evenodd" d="M17.6569 6.41453L20.8241 9.54173C22.1817 10.8822 22.1956 13.0695 20.8551 14.4271C20.8448 14.4375 20.8345 14.4479 20.8241 14.4582L17.6569 17.5854C14.5211 20.6815 9.4789 20.6815 6.34315 17.5854L3.17595 14.4582C1.81831 13.1177 1.80441 10.9304 3.14491 9.57277C3.15519 9.56236 3.16554 9.55201 3.17595 9.54173L6.34315 6.41453C9.4789 3.31837 14.5211 3.31837 17.6569 6.41453ZM12 5.99995C8.68629 5.99995 6 8.68624 6 12C6 15.3137 8.68629 18 12 18C15.3137 18 18 15.3137 18 12C18 8.68624 15.3137 5.99995 12 5.99995ZM12 7.99995C14.2091 7.99995 16 9.79081 16 12C16 14.2091 14.2091 16 12 16C9.79086 16 8 14.2091 8 12C8 9.79081 9.79086 7.99995 12 7.99995Z" fill="#746969"/>
</svg>
