<svg width="40" height="40" viewBox="0 0 40 40" fill="none" xmlns="http://www.w3.org/2000/svg">
<path fill-rule="evenodd" clip-rule="evenodd" d="M9.02089 10.569C9.55446 10.0112 10.4455 10.0112 10.9791 10.569L20 20H3.17092C1.97829 20 1.36744 18.5704 2.19181 17.7085L9.02089 10.569Z" fill="#7F2B28"/>
<path fill-rule="evenodd" clip-rule="evenodd" d="M30.9791 29.431C30.4455 29.9888 29.5545 29.9888 29.0209 29.431L20 20H36.8291C38.0217 20 38.6326 21.4296 37.8082 22.2915L30.9791 29.431Z" fill="#3A4838"/>
<path fill-rule="evenodd" clip-rule="evenodd" d="M10.569 30.9791C10.0112 30.4455 10.0112 29.5545 10.569 29.0209L20 20V36.8291C20 38.0217 18.5704 38.6326 17.7085 37.8082L10.569 30.9791Z" fill="#CC9A7D"/>
<path fill-rule="evenodd" clip-rule="evenodd" d="M29.431 9.02089C29.9888 9.55446 29.9888 10.4455 29.431 10.9791L20 20L20 3.17092C20 1.97829 21.4296 1.36744 22.2915 2.19181L29.431 9.02089Z" fill="#5B1C1A"/>
</svg>
